<?xml version="1.0" encoding="utf-8"?>
<!-- Generator: Adobe Illustrator 25.2.0, SVG Export Plug-In . SVG Version: 6.00 Build 0)  -->
<svg version="1.1"
	 id="svg3341" xmlns:cc="http://creativecommons.org/ns#" xmlns:dc="http://purl.org/dc/elements/1.1/" xmlns:inkscape="http://www.inkscape.org/namespaces/inkscape" xmlns:rdf="http://www.w3.org/1999/02/22-rdf-syntax-ns#" xmlns:sodipodi="http://sodipodi.sourceforge.net/DTD/sodipodi-0.dtd" xmlns:svg="http://www.w3.org/2000/svg"
	 xmlns="http://www.w3.org/2000/svg" xmlns:xlink="http://www.w3.org/1999/xlink" x="0px" y="0px" viewBox="0 0 1296 192"
	 style="enable-background:new 0 0 1296 192;" xml:space="preserve">
<sodipodi:namedview  bordercolor="#666666" borderopacity="1.0" id="base" inkscape:current-layer="layer1" inkscape:cx="144.97634" inkscape:cy="-0.056865311" inkscape:document-units="px" inkscape:pageopacity="0.0" inkscape:pageshadow="2" inkscape:snap-grids="true" inkscape:window-height="966" inkscape:window-maximized="1" inkscape:window-width="1680" inkscape:window-x="-8" inkscape:window-y="-8" inkscape:zoom="2.0875" pagecolor="#ffffff" showgrid="true" units="px">
	<inkscape:grid  id="grid3353" type="xygrid"></inkscape:grid>
</sodipodi:namedview>
<rect id="rect4161" x="60" y="106.5" style="fill:#C8C8C8;" width="9" height="27"/>
<rect id="rect4163" x="75" y="106.5" style="fill:#C8C8C8;" width="9" height="27"/>
<rect id="rect4165" x="108" y="108" style="fill:#C8C8C8;" width="24" height="24"/>
<rect id="rect4167" x="150" y="109.5" style="fill:#C8C8C8;" width="3" height="21"/>
<path id="path4169" inkscape:flatsided="true" inkscape:randomized="0" inkscape:rounded="0" inkscape:transform-center-x="0.66666139" inkscape:transform-center-y="-3.0343961e-005" sodipodi:arg1="3.1415927" sodipodi:arg2="4.1887902" sodipodi:cx="73" sodipodi:cy="1040.3621" sodipodi:r1="2" sodipodi:r2="1" sodipodi:sides="3" sodipodi:type="star" style="fill:#C8C8C8;" d="
	M156,120l12-10.5v21L156,120z"/>
<path id="path4171" inkscape:flatsided="true" inkscape:randomized="0" inkscape:rounded="0" inkscape:transform-center-x="0.66666139" inkscape:transform-center-y="-3.0343961e-005" sodipodi:arg1="3.1415927" sodipodi:arg2="4.1887902" sodipodi:cx="73" sodipodi:cy="1040.3621" sodipodi:r1="2" sodipodi:r2="1" sodipodi:sides="3" sodipodi:type="star" style="fill:#C8C8C8;" d="
	M171,120l12-10.5v21L171,120z"/>
<path id="path4173" inkscape:flatsided="true" inkscape:randomized="0" inkscape:rounded="0" inkscape:transform-center-x="0.66666139" inkscape:transform-center-y="-3.0343961e-005" sodipodi:arg1="3.1415927" sodipodi:arg2="4.1887902" sodipodi:cx="73" sodipodi:cy="1040.3621" sodipodi:r1="2" sodipodi:r2="1" sodipodi:sides="3" sodipodi:type="star" style="fill:#C8C8C8;" d="
	M345,120l12-10.5v21L345,120z"/>
<path id="path4175" inkscape:flatsided="true" inkscape:randomized="0" inkscape:rounded="0" inkscape:transform-center-x="0.66666139" inkscape:transform-center-y="-3.0343961e-005" sodipodi:arg1="3.1415927" sodipodi:arg2="4.1887902" sodipodi:cx="73" sodipodi:cy="1040.3621" sodipodi:r1="2" sodipodi:r2="1" sodipodi:sides="3" sodipodi:type="star" style="fill:#C8C8C8;" d="
	M360,120l12-10.5v21L360,120z"/>
<rect id="rect4177" x="228" y="109.5" style="fill:#C8C8C8;" width="3" height="21"/>
<path id="path4179" inkscape:flatsided="true" inkscape:randomized="0" inkscape:rounded="0" inkscape:transform-center-x="-0.666658" sodipodi:arg1="3.1415927" sodipodi:arg2="4.1887902" sodipodi:cx="73" sodipodi:cy="1040.3621" sodipodi:r1="2" sodipodi:r2="1" sodipodi:sides="3" sodipodi:type="star" style="fill:#C8C8C8;" d="
	M225,120l-12,10.5v-21L225,120z"/>
<path id="path4181" inkscape:flatsided="true" inkscape:randomized="0" inkscape:rounded="0" inkscape:transform-center-x="-0.666658" sodipodi:arg1="3.1415927" sodipodi:arg2="4.1887902" sodipodi:cx="73" sodipodi:cy="1040.3621" sodipodi:r1="2" sodipodi:r2="1" sodipodi:sides="3" sodipodi:type="star" style="fill:#C8C8C8;" d="
	M210,120l-12,10.5v-21L210,120z"/>
<path id="path4183" inkscape:flatsided="true" inkscape:randomized="0" inkscape:rounded="0" inkscape:transform-center-x="-0.666658" sodipodi:arg1="3.1415927" sodipodi:arg2="4.1887902" sodipodi:cx="73" sodipodi:cy="1040.3621" sodipodi:r1="2" sodipodi:r2="1" sodipodi:sides="3" sodipodi:type="star" style="fill:#C8C8C8;" d="
	M423,120l-12,10.5v-21L423,120z"/>
<path id="path4185" inkscape:flatsided="true" inkscape:randomized="0" inkscape:rounded="0" inkscape:transform-center-x="-0.666658" sodipodi:arg1="3.1415927" sodipodi:arg2="4.1887902" sodipodi:cx="73" sodipodi:cy="1040.3621" sodipodi:r1="2" sodipodi:r2="1" sodipodi:sides="3" sodipodi:type="star" style="fill:#C8C8C8;" d="
	M408,120l-12,10.5v-21L408,120z"/>
<rect id="rect4187" x="444" y="109.5" style="fill:#C8C8C8;" width="6" height="21"/>
<path style="fill:#C8C8C8;" d="M456,109.5h3v21h-3V109.5z M471,120l-12,10.5v-21L471,120z"/>
<path id="path4179-5" inkscape:flatsided="true" inkscape:randomized="0" inkscape:rounded="0" inkscape:transform-center-x="1.3333156" inkscape:transform-center-y="-0.00016308799" sodipodi:arg1="3.1415927" sodipodi:arg2="4.1887902" sodipodi:cx="73" sodipodi:cy="1040.3621" sodipodi:r1="2" sodipodi:r2="1" sodipodi:sides="3" sodipodi:type="star" style="fill:#C8C8C8;" d="
	M1152,120l24-21v42L1152,120z"/>
<rect id="rect4187-3" x="1152" y="111" style="fill:#C8C8C8;" width="12" height="18"/>
<rect id="rect4181-4" x="1200" y="-48" style="fill-rule:evenodd;clip-rule:evenodd;fill:#F600FF;" width="48" height="48"/>
<rect id="rect4181-4-8" x="1152" y="-48" style="fill-rule:evenodd;clip-rule:evenodd;fill:#7200FF;" width="48" height="48"/>
<path id="path4230" sodipodi:cx="200.42171" sodipodi:cy="1044.3516" sodipodi:end="1.4835299" sodipodi:open="true" sodipodi:rx="1.1333569" sodipodi:ry="1.0653899" sodipodi:start="4.7996554" sodipodi:type="arc" style="fill:none;stroke:#C8C8C8;stroke-width:0.5;" d="
	M1177.5,116.7c1.8,0,3,1.5,3,3.3s-1.2,3-3,3.3"/>
<path id="path4230-0" sodipodi:cx="201.32703" sodipodi:cy="1044.3516" sodipodi:end="1.4835299" sodipodi:open="true" sodipodi:rx="2.2667139" sodipodi:ry="2.1307797" sodipodi:start="4.7996554" sodipodi:type="arc" style="fill:none;stroke:#C8C8C8;stroke-width:0.6;" d="
	M1180.5,113.4c3.6,0.3,6.3,3,6.3,6.3s-2.7,6-6.3,6.3"/>
<path id="path4230-0-7" sodipodi:cx="201.63358" sodipodi:cy="1044.3519" sodipodi:end="1.4835299" sodipodi:open="true" sodipodi:rx="4.5334277" sodipodi:ry="4.2615595" sodipodi:start="4.7996554" sodipodi:type="arc" style="fill:none;stroke:#C8C8C8;stroke-width:0.7;" d="
	M1182,107.1c6.9,0.6,12.3,6,12.3,12.6s-5.4,12.3-12.3,12.6"/>
<rect id="rect4161_1_" x="60" y="154.5" style="fill:#646464;" width="9" height="27"/>
<rect id="rect4163_1_" x="75" y="154.5" style="fill:#646464;" width="9" height="27"/>
<rect id="rect4165_1_" x="108" y="156" style="fill:#646464;" width="24" height="24"/>
<rect id="rect4167_1_" x="150" y="157.5" style="fill:#646464;" width="3" height="21"/>
<path id="path4169_1_" inkscape:flatsided="true" inkscape:randomized="0" inkscape:rounded="0" inkscape:transform-center-x="0.66666139" inkscape:transform-center-y="-3.0343961e-005" sodipodi:arg1="3.1415927" sodipodi:arg2="4.1887902" sodipodi:cx="73" sodipodi:cy="1040.3621" sodipodi:r1="2" sodipodi:r2="1" sodipodi:sides="3" sodipodi:type="star" style="fill:#646464;" d="
	M156,168l12-10.5v21L156,168z"/>
<path id="path4171_1_" inkscape:flatsided="true" inkscape:randomized="0" inkscape:rounded="0" inkscape:transform-center-x="0.66666139" inkscape:transform-center-y="-3.0343961e-005" sodipodi:arg1="3.1415927" sodipodi:arg2="4.1887902" sodipodi:cx="73" sodipodi:cy="1040.3621" sodipodi:r1="2" sodipodi:r2="1" sodipodi:sides="3" sodipodi:type="star" style="fill:#646464;" d="
	M171,168l12-10.5v21L171,168z"/>
<path id="path4173_1_" inkscape:flatsided="true" inkscape:randomized="0" inkscape:rounded="0" inkscape:transform-center-x="0.66666139" inkscape:transform-center-y="-3.0343961e-005" sodipodi:arg1="3.1415927" sodipodi:arg2="4.1887902" sodipodi:cx="73" sodipodi:cy="1040.3621" sodipodi:r1="2" sodipodi:r2="1" sodipodi:sides="3" sodipodi:type="star" style="fill:#646464;" d="
	M345,168l12-10.5v21L345,168z"/>
<path id="path4175_1_" inkscape:flatsided="true" inkscape:randomized="0" inkscape:rounded="0" inkscape:transform-center-x="0.66666139" inkscape:transform-center-y="-3.0343961e-005" sodipodi:arg1="3.1415927" sodipodi:arg2="4.1887902" sodipodi:cx="73" sodipodi:cy="1040.3621" sodipodi:r1="2" sodipodi:r2="1" sodipodi:sides="3" sodipodi:type="star" style="fill:#646464;" d="
	M360,168l12-10.5v21L360,168z"/>
<rect id="rect4177_1_" x="228" y="157.5" style="fill:#646464;" width="3" height="21"/>
<path id="path4179_1_" inkscape:flatsided="true" inkscape:randomized="0" inkscape:rounded="0" inkscape:transform-center-x="-0.666658" sodipodi:arg1="3.1415927" sodipodi:arg2="4.1887902" sodipodi:cx="73" sodipodi:cy="1040.3621" sodipodi:r1="2" sodipodi:r2="1" sodipodi:sides="3" sodipodi:type="star" style="fill:#646464;" d="
	M225,168l-12,10.5v-21L225,168z"/>
<path id="path4181_1_" inkscape:flatsided="true" inkscape:randomized="0" inkscape:rounded="0" inkscape:transform-center-x="-0.666658" sodipodi:arg1="3.1415927" sodipodi:arg2="4.1887902" sodipodi:cx="73" sodipodi:cy="1040.3621" sodipodi:r1="2" sodipodi:r2="1" sodipodi:sides="3" sodipodi:type="star" style="fill:#646464;" d="
	M210,168l-12,10.5v-21L210,168z"/>
<path id="path4183_1_" inkscape:flatsided="true" inkscape:randomized="0" inkscape:rounded="0" inkscape:transform-center-x="-0.666658" sodipodi:arg1="3.1415927" sodipodi:arg2="4.1887902" sodipodi:cx="73" sodipodi:cy="1040.3621" sodipodi:r1="2" sodipodi:r2="1" sodipodi:sides="3" sodipodi:type="star" style="fill:#646464;" d="
	M423,168l-12,10.5v-21L423,168z"/>
<path id="path4185_1_" inkscape:flatsided="true" inkscape:randomized="0" inkscape:rounded="0" inkscape:transform-center-x="-0.666658" sodipodi:arg1="3.1415927" sodipodi:arg2="4.1887902" sodipodi:cx="73" sodipodi:cy="1040.3621" sodipodi:r1="2" sodipodi:r2="1" sodipodi:sides="3" sodipodi:type="star" style="fill:#646464;" d="
	M408,168l-12,10.5v-21L408,168z"/>
<rect id="rect4187_1_" x="444" y="157.5" style="fill:#646464;" width="6" height="21"/>
<path style="fill:#646464;" d="M456,157.5h3v21h-3V157.5z M471,168l-12,10.5v-21L471,168z"/>
<rect x="60" y="10.5" width="9" height="27"/>
<rect x="75" y="10.5" width="9" height="27"/>
<rect x="108" y="12" width="24" height="24"/>
<rect x="150" y="13.5" width="3" height="21"/>
<polygon points="156,24 168,13.5 168,34.5 "/>
<polygon points="171,24 183,13.5 183,34.5 "/>
<polygon points="345,24 357,13.5 357,34.5 "/>
<polygon points="360,24 372,13.5 372,34.5 "/>
<rect x="228" y="13.5" width="3" height="21"/>
<polygon points="225,24 213,34.5 213,13.5 "/>
<polygon points="210,24 198,34.5 198,13.5 "/>
<polygon points="423,24 411,34.5 411,13.5 "/>
<polygon points="408,24 396,34.5 396,13.5 "/>
<rect x="444" y="13.5" width="6" height="21"/>
<path d="M459,34.5h-3v-21h3V34.5z M471,24l-12,10.5v-21L471,24z"/>
<polygon points="1152,24 1176,3 1176,45 "/>
<path d="M1164,33h-12V15h12V33z"/>
<path style="fill:none;stroke:#000000;stroke-width:0.5;" d="M1177.5,20.7c1.8,0,3,1.5,3,3.3s-1.2,3-3,3.3"/>
<path style="fill:none;stroke:#000000;stroke-width:0.6;" d="M1180.5,17.7c3.6,0.3,6.3,3,6.3,6.3s-2.7,6-6.3,6.3"/>
<path style="fill:none;stroke:#000000;stroke-width:0.7;" d="M1182,11.1c6.9,0.6,12.3,6,12.3,12.6s-5.4,12.3-12.3,12.6"/>
<rect x="60" y="58.5" style="fill:#7F7F7F;" width="9" height="27"/>
<rect x="75" y="58.5" style="fill:#7F7F7F;" width="9" height="27"/>
<rect x="108" y="60" style="fill:#7F7F7F;" width="24" height="24"/>
<rect x="150" y="61.5" style="fill:#7F7F7F;" width="3" height="21"/>
<polygon style="fill:#7F7F7F;" points="156,72 168,61.5 168,82.5 "/>
<polygon style="fill:#7F7F7F;" points="171,72 183,61.5 183,82.5 "/>
<polygon style="fill:#7F7F7F;" points="345,72 357,61.5 357,82.5 "/>
<polygon style="fill:#7F7F7F;" points="360,72 372,61.5 372,82.5 "/>
<rect x="228" y="61.5" style="fill:#7F7F7F;" width="3" height="21"/>
<polygon style="fill:#7F7F7F;" points="225,72 213,82.5 213,61.5 "/>
<polygon style="fill:#7F7F7F;" points="210,72 198,82.5 198,61.5 "/>
<polygon style="fill:#7F7F7F;" points="423,72 411,82.5 411,61.5 "/>
<polygon style="fill:#7F7F7F;" points="408,72 396,82.5 396,61.5 "/>
<rect x="444" y="61.5" style="fill:#7F7F7F;" width="6" height="21"/>
<path style="fill:#7F7F7F;" d="M459,82.5h-3v-21h3V82.5z M471,72l-12,10.5v-21L471,72z"/>
<rect x="768" y="-48" width="48" height="48"/>
<polygon style="fill:#7F7F7F;" points="1152,72 1176,51 1176,93 "/>
<path style="fill:#7F7F7F;" d="M1164,81h-12V63h12V81z"/>
<path style="fill:none;stroke:#7F7F7F;stroke-width:0.5;" d="M1177.5,68.7c1.8,0,3,1.5,3,3.3s-1.2,3-3,3.3"/>
<path style="fill:none;stroke:#7F7F7F;stroke-width:0.6;" d="M1180.5,65.7c3.6,0.3,6.3,3,6.3,6.3s-2.7,6-6.3,6.3"/>
<path id="path4179-5_1_" inkscape:flatsided="true" inkscape:randomized="0" inkscape:rounded="0" inkscape:transform-center-x="1.3333156" inkscape:transform-center-y="-0.00016308799" sodipodi:arg1="3.1415927" sodipodi:arg2="4.1887902" sodipodi:cx="73" sodipodi:cy="1040.3621" sodipodi:r1="2" sodipodi:r2="1" sodipodi:sides="3" sodipodi:type="star" style="fill:#646464;" d="
	M1152,168l24-21v42L1152,168z"/>
<rect id="rect4187-3_1_" x="1152" y="159" style="fill:#646464;" width="12" height="18"/>
<path id="path4230_1_" sodipodi:cx="200.42171" sodipodi:cy="1044.3516" sodipodi:end="1.4835299" sodipodi:open="true" sodipodi:rx="1.1333569" sodipodi:ry="1.0653899" sodipodi:start="4.7996554" sodipodi:type="arc" style="fill:none;stroke:#646464;stroke-width:0.5;" d="
	M1177.5,164.7c1.8,0,3,1.5,3,3.3s-1.2,3-3,3.3"/>
<path id="path4230-0_1_" sodipodi:cx="201.32703" sodipodi:cy="1044.3516" sodipodi:end="1.4835299" sodipodi:open="true" sodipodi:rx="2.2667139" sodipodi:ry="2.1307797" sodipodi:start="4.7996554" sodipodi:type="arc" style="fill:none;stroke:#646464;stroke-width:0.6;" d="
	M1180.5,161.4c3.6,0.3,6.3,3,6.3,6.3s-2.7,6-6.3,6.3"/>
<rect x="492" y="30" width="24" height="6"/>
<path d="M516,21v3h-24v-3H516z M504,9l12,12h-24L504,9z"/>
<rect id="rect4165_6_" x="537" y="9" width="3" height="30"/>
<rect id="rect4165_7_" x="534" y="12" width="9" height="3"/>
<rect id="rect4165_48_" x="546" y="30" width="9" height="3"/>
<rect id="rect4165_49_" x="558" y="24" width="9" height="3"/>
<g>
	<polyline style="fill:none;stroke:#000000;stroke-width:3;stroke-miterlimit:10;" points="675,15 684.3,15 698.7,33 708,33 	"/>
</g>
<rect id="rect4165_103_" x="633" y="157.5" style="fill:#C8C8C8;" width="30" height="3"/>
<rect id="rect4165_102_" x="633" y="166.5" style="fill:#C8C8C8;" width="30" height="3"/>
<rect id="rect4165_97_" x="633" y="175.5" style="fill:#C8C8C8;" width="15" height="3"/>
<polygon style="fill:#C8C8C8;" points="663,178.5 654,184.5 654,172.5 "/>
<line style="fill:none;stroke:#C8C8C8;stroke-miterlimit:10;" x1="652.5" y1="124.5" x2="661.5" y2="133.5"/>
<line style="fill:none;stroke:#C8C8C8;stroke-miterlimit:10;" x1="652.5" y1="133.5" x2="661.5" y2="124.5"/>
<rect id="rect4165_17_" x="633" y="109.5" style="fill:#C8C8C8;" width="30" height="3"/>
<rect id="rect4165_16_" x="633" y="118.5" style="fill:#C8C8C8;" width="30" height="3"/>
<rect id="rect4165_10_" x="633" y="127.5" style="fill:#C8C8C8;" width="15" height="3"/>
<rect id="rect4165_105_" x="633" y="61.5" width="30" height="3"/>
<rect id="rect4165_104_" x="633" y="70.5" width="30" height="3"/>
<rect id="rect4165_101_" x="633" y="79.5" width="15" height="3"/>
<polygon points="663,82.5 654,88.5 654,76.5 "/>
<line style="fill:none;stroke:#000000;stroke-miterlimit:10;" x1="652.5" y1="28.5" x2="661.5" y2="37.5"/>
<line style="fill:none;stroke:#000000;stroke-miterlimit:10;" x1="652.5" y1="37.5" x2="661.5" y2="28.5"/>
<rect id="rect4165_100_" x="633" y="13.5" width="30" height="3"/>
<rect id="rect4165_99_" x="633" y="22.5" width="30" height="3"/>
<rect id="rect4165_98_" x="633" y="31.5" width="15" height="3"/>
<rect id="rect4165_67_" x="585" y="84" width="12" height="3"/>
<rect id="rect4165_66_" x="585" y="75" width="3" height="12"/>
<rect id="rect4165_73_" x="585" y="57" width="3" height="12"/>
<rect id="rect4165_106_" x="603" y="84" width="12" height="3"/>
<rect id="rect4165_68_" x="585" y="57" width="12" height="3"/>
<rect id="rect4165_69_" x="603" y="57" width="12" height="3"/>
<rect id="rect4165_70_" x="612" y="57" width="3" height="12"/>
<rect id="rect4165_71_" x="612" y="75" width="3" height="12"/>
<rect id="rect4165_88_" x="585" y="180" style="fill:#C8C8C8;" width="12" height="3"/>
<rect id="rect4165_87_" x="585" y="171" style="fill:#C8C8C8;" width="3" height="12"/>
<rect id="rect4165_86_" x="585" y="153" style="fill:#C8C8C8;" width="3" height="12"/>
<rect id="rect4165_85_" x="603" y="180" style="fill:#C8C8C8;" width="12" height="3"/>
<rect id="rect4165_84_" x="585" y="153" style="fill:#C8C8C8;" width="12" height="3"/>
<rect id="rect4165_83_" x="603" y="153" style="fill:#C8C8C8;" width="12" height="3"/>
<rect id="rect4165_82_" x="612" y="153" style="fill:#C8C8C8;" width="3" height="12"/>
<rect id="rect4165_81_" x="612" y="171" style="fill:#C8C8C8;" width="3" height="12"/>
<rect id="rect4165_145_" x="585" y="27" width="12" height="3"/>
<rect id="rect4165_144_" x="594" y="27" width="3" height="12"/>
<rect id="rect4165_143_" x="594" y="9" width="3" height="12"/>
<rect id="rect4165_142_" x="603" y="27" width="12" height="3"/>
<rect id="rect4165_141_" x="585" y="18" width="12" height="3"/>
<rect id="rect4165_140_" x="603" y="18" width="12" height="3"/>
<rect id="rect4165_139_" x="603" y="9" width="3" height="12"/>
<rect id="rect4165_138_" x="603" y="27" width="3" height="12"/>
<rect id="rect4165_161_" x="585" y="123" style="fill:#C8C8C8;" width="12" height="3"/>
<rect id="rect4165_160_" x="594" y="123" style="fill:#C8C8C8;" width="3" height="12"/>
<rect id="rect4165_159_" x="594" y="105" style="fill:#C8C8C8;" width="3" height="12"/>
<rect id="rect4165_158_" x="603" y="123" style="fill:#C8C8C8;" width="12" height="3"/>
<rect id="rect4165_157_" x="585" y="114" style="fill:#C8C8C8;" width="12" height="3"/>
<rect id="rect4165_156_" x="603" y="114" style="fill:#C8C8C8;" width="12" height="3"/>
<rect id="rect4165_155_" x="603" y="105" style="fill:#C8C8C8;" width="3" height="12"/>
<rect id="rect4165_154_" x="603" y="123" style="fill:#C8C8C8;" width="3" height="12"/>
<rect id="rect4165_4_" x="549" y="9" width="3" height="30"/>
<rect id="rect4165_5_" x="561" y="9" width="3" height="30"/>
<rect id="rect4165_53_" x="537" y="57" style="fill:#7F7F7F;" width="3" height="30"/>
<rect id="rect4165_52_" x="534" y="60" style="fill:#7F7F7F;" width="9" height="3"/>
<rect id="rect4165_51_" x="546" y="78" style="fill:#7F7F7F;" width="9" height="3"/>
<rect id="rect4165_50_" x="558" y="72" style="fill:#7F7F7F;" width="9" height="3"/>
<rect id="rect4165_9_" x="549" y="57" style="fill:#7F7F7F;" width="3" height="30"/>
<rect id="rect4165_8_" x="561" y="57" style="fill:#7F7F7F;" width="3" height="30"/>
<rect id="rect4165_59_" x="537" y="105" style="fill:#C8C8C8;" width="3" height="30"/>
<rect id="rect4165_58_" x="534" y="108" style="fill:#C8C8C8;" width="9" height="3"/>
<rect id="rect4165_57_" x="546" y="126" style="fill:#C8C8C8;" width="9" height="3"/>
<rect id="rect4165_56_" x="558" y="120" style="fill:#C8C8C8;" width="9" height="3"/>
<rect id="rect4165_55_" x="549" y="105" style="fill:#C8C8C8;" width="3" height="30"/>
<rect id="rect4165_54_" x="561" y="105" style="fill:#C8C8C8;" width="3" height="30"/>
<rect id="rect4165_65_" x="537" y="153" style="fill:#646464;" width="3" height="30"/>
<rect id="rect4165_64_" x="534" y="156" style="fill:#646464;" width="9" height="3"/>
<rect id="rect4165_63_" x="546" y="174" style="fill:#646464;" width="9" height="3"/>
<rect id="rect4165_62_" x="558" y="168" style="fill:#646464;" width="9" height="3"/>
<rect id="rect4165_61_" x="549" y="153" style="fill:#646464;" width="3" height="30"/>
<rect id="rect4165_60_" x="561" y="153" style="fill:#646464;" width="3" height="30"/>
<rect x="492" y="78" style="fill:#7F7F7F;" width="24" height="6"/>
<path style="fill:#7F7F7F;" d="M516,69v3h-24v-3H516z M504,57l12,12h-24L504,57z"/>
<rect x="492" y="126" style="fill:#C8C8C8;" width="24" height="6"/>
<path style="fill:#C8C8C8;" d="M516,117v3h-24v-3H516z M504,105l12,12h-24L504,105z"/>
<rect x="492" y="174" style="fill:#646464;" width="24" height="6"/>
<path style="fill:#646464;" d="M516,165v3h-24v-3H516z M504,153l12,12h-24L504,153z"/>
<polygon points="717,33 708,40.5 708,25.5 "/>
<g>
	<polyline style="fill:none;stroke:#000000;stroke-width:3;stroke-miterlimit:10;" points="708,15 698.7,15 684.3,33 675,33 	"/>
</g>
<polygon points="708,22.5 708,7.5 717,15 "/>
<g>
	<polyline style="fill:none;stroke:#C8C8C8;stroke-width:3;stroke-miterlimit:10;" points="675,111 684.3,111 698.7,129 708,129 	
		"/>
</g>
<polygon style="fill:#C8C8C8;" points="717,129 708,136.5 708,121.5 "/>
<g>
	<polyline style="fill:none;stroke:#C8C8C8;stroke-width:3;stroke-miterlimit:10;" points="708,111 698.7,111 684.3,129 675,129 	
		"/>
</g>
<polygon style="fill:#C8C8C8;" points="708,118.5 708,103.5 717,111 "/>
<path d="M675,61.5h33v3h-33V61.5z M708,70.5v-15l9,7.5L708,70.5z"/>
<path d="M675,79.5h33v3h-33V79.5z M717,81l-9,7.5v-15L717,81z"/>
<path style="fill:#C8C8C8;" d="M675,157.5h33v3h-33V157.5z M708,166.5v-15l9,7.5L708,166.5z"/>
<path style="fill:#C8C8C8;" d="M675,175.5h33v3h-33V175.5z M717,177l-9,7.5v-15L717,177z"/>
<path d="M741,33h21v3h-21V33z M759,15h3v18h-3V15z M756,12h6v3h-6V12z M741,27v15l-9-7.5L741,27z"/>
<path d="M726,33h6v3h-6V33z M726,12h21v3h-21V12z M747,21V6l9,7.5L747,21z M726,15h3v18h-3V15z"/>
<path style="fill:#C8C8C8;" d="M741,129h21v3h-21V129z M759,111h3v18h-3V111z M756,108h6v3h-6V108z M741,123v15l-9-7.5L741,123z"/>
<path style="fill:#C8C8C8;" d="M726,129h6v3h-6V129z M726,108h21v3h-21V108z M747,117v-15l9,7.5L747,117z M726,111h3v18h-3V111z"/>
<rect id="rect4165_120_" x="741" y="81" width="21" height="3"/>
<rect id="rect4165_119_" x="759" y="63" width="3" height="18"/>
<rect id="rect4165_118_" x="726" y="81" width="6" height="3"/>
<rect id="rect4165_117_" x="726" y="60" width="21" height="3"/>
<rect id="rect4165_116_" x="756" y="60" width="6" height="3"/>
<polygon points="747,69 747,54 756,61.5 "/>
<polygon points="741,75 741,90 732,82.5 "/>
<rect id="rect4165_115_" x="726" y="63" width="3" height="18"/>
<rect id="rect4165_124_" x="741" y="177" style="fill:#C8C8C8;" width="21" height="3"/>
<rect id="rect4165_123_" x="759" y="159" style="fill:#C8C8C8;" width="3" height="18"/>
<rect id="rect4165_121_" x="726" y="177" style="fill:#C8C8C8;" width="6" height="3"/>
<rect id="rect4165_114_" x="726" y="156" style="fill:#C8C8C8;" width="21" height="3"/>
<rect id="rect4165_113_" x="756" y="156" style="fill:#C8C8C8;" width="6" height="3"/>
<polygon style="fill:#C8C8C8;" points="747,165 747,150 756,157.5 "/>
<polygon style="fill:#C8C8C8;" points="741,171 741,186 732,178.5 "/>
<rect id="rect4165_112_" x="726" y="159" style="fill:#C8C8C8;" width="3" height="18"/>
<path d="M819,12h39v3h-39V12z M849,21h15l-7.5,9L849,21z M819,15h3v15h-3V15z M855,15h3v6h-3V15z"/>
<rect id="rect4165_181_" x="819" y="33" width="3" height="3"/>
<rect id="rect4165_182_" x="825" y="33" width="3" height="3"/>
<rect id="rect4165_183_" x="831" y="33" width="3" height="3"/>
<rect id="rect4165_184_" x="837" y="33" width="3" height="3"/>
<rect id="rect4165_185_" x="843" y="33" width="3" height="3"/>
<rect id="rect4165_186_" x="849" y="33" width="3" height="3"/>
<rect id="rect4165_187_" x="855" y="33" width="3" height="3"/>
<path style="fill:#7F7F7F;" d="M819,60h39v3h-39V60z M849,69h15l-7.5,9L849,69z M819,63h3v15h-3V63z M855,63h3v6h-3V63z"/>
<rect id="rect4165_192_" x="819" y="81" style="fill:#7F7F7F;" width="3" height="3"/>
<rect id="rect4165_191_" x="825" y="81" style="fill:#7F7F7F;" width="3" height="3"/>
<rect id="rect4165_190_" x="831" y="81" style="fill:#7F7F7F;" width="3" height="3"/>
<rect id="rect4165_189_" x="837" y="81" style="fill:#7F7F7F;" width="3" height="3"/>
<rect id="rect4165_188_" x="843" y="81" style="fill:#7F7F7F;" width="3" height="3"/>
<rect id="rect4165_29_" x="849" y="81" style="fill:#7F7F7F;" width="3" height="3"/>
<rect id="rect4165_28_" x="855" y="81" style="fill:#7F7F7F;" width="3" height="3"/>
<path style="fill:#C8C8C8;" d="M819,108h39v3h-39V108z M849,117h15l-7.5,9L849,117z M819,111h3v15h-3V111z M855,111h3v6h-3V111z"/>
<rect id="rect4165_202_" x="819" y="129" style="fill:#C8C8C8;" width="3" height="3"/>
<rect id="rect4165_201_" x="825" y="129" style="fill:#C8C8C8;" width="3" height="3"/>
<rect id="rect4165_200_" x="831" y="129" style="fill:#C8C8C8;" width="3" height="3"/>
<rect id="rect4165_199_" x="837" y="129" style="fill:#C8C8C8;" width="3" height="3"/>
<rect id="rect4165_198_" x="843" y="129" style="fill:#C8C8C8;" width="3" height="3"/>
<rect id="rect4165_197_" x="849" y="129" style="fill:#C8C8C8;" width="3" height="3"/>
<rect id="rect4165_196_" x="855" y="129" style="fill:#C8C8C8;" width="3" height="3"/>
<path style="fill:#646464;" d="M819,156h39v3h-39V156z M849,165h15l-7.5,9L849,165z M819,159h3v15h-3V159z M855,159h3v6h-3V159z"/>
<rect id="rect4165_212_" x="819" y="177" style="fill:#646464;" width="3" height="3"/>
<rect id="rect4165_211_" x="825" y="177" style="fill:#646464;" width="3" height="3"/>
<rect id="rect4165_210_" x="831" y="177" style="fill:#646464;" width="3" height="3"/>
<rect id="rect4165_209_" x="837" y="177" style="fill:#646464;" width="3" height="3"/>
<rect id="rect4165_208_" x="843" y="177" style="fill:#646464;" width="3" height="3"/>
<rect id="rect4165_207_" x="849" y="177" style="fill:#646464;" width="3" height="3"/>
<rect id="rect4165_206_" x="855" y="177" style="fill:#646464;" width="3" height="3"/>
<path d="M813,15h-39v-3h39V15z M775.5,30l-7.5-9h15L775.5,30z M813,30h-3V15h3V30z M777,21h-3v-6h3V21z"/>
<rect id="rect4165_250_" x="810" y="33" width="3" height="3"/>
<rect id="rect4165_249_" x="804" y="33" width="3" height="3"/>
<rect id="rect4165_248_" x="798" y="33" width="3" height="3"/>
<rect id="rect4165_247_" x="792" y="33" width="3" height="3"/>
<rect id="rect4165_246_" x="786" y="33" width="3" height="3"/>
<rect id="rect4165_245_" x="780" y="33" width="3" height="3"/>
<rect id="rect4165_244_" x="774" y="33" width="3" height="3"/>
<path style="fill:#7F7F7F;" d="M813,63h-39v-3h39V63z M775.5,78l-7.5-9h15L775.5,78z M813,78h-3V63h3V78z M777,69h-3v-6h3V69z"/>
<rect id="rect4165_240_" x="810" y="81" style="fill:#7F7F7F;" width="3" height="3"/>
<rect id="rect4165_239_" x="804" y="81" style="fill:#7F7F7F;" width="3" height="3"/>
<rect id="rect4165_238_" x="798" y="81" style="fill:#7F7F7F;" width="3" height="3"/>
<rect id="rect4165_237_" x="792" y="81" style="fill:#7F7F7F;" width="3" height="3"/>
<rect id="rect4165_236_" x="786" y="81" style="fill:#7F7F7F;" width="3" height="3"/>
<rect id="rect4165_235_" x="780" y="81" style="fill:#7F7F7F;" width="3" height="3"/>
<rect id="rect4165_234_" x="774" y="81" style="fill:#7F7F7F;" width="3" height="3"/>
<path style="fill:#C8C8C8;" d="M813,111h-39v-3h39V111z M775.5,126l-7.5-9h15L775.5,126z M813,126h-3v-15h3V126z M777,117h-3v-6h3
	V117z"/>
<rect id="rect4165_230_" x="810" y="129" style="fill:#C8C8C8;" width="3" height="3"/>
<rect id="rect4165_229_" x="804" y="129" style="fill:#C8C8C8;" width="3" height="3"/>
<rect id="rect4165_228_" x="798" y="129" style="fill:#C8C8C8;" width="3" height="3"/>
<rect id="rect4165_227_" x="792" y="129" style="fill:#C8C8C8;" width="3" height="3"/>
<rect id="rect4165_226_" x="786" y="129" style="fill:#C8C8C8;" width="3" height="3"/>
<rect id="rect4165_225_" x="780" y="129" style="fill:#C8C8C8;" width="3" height="3"/>
<rect id="rect4165_224_" x="774" y="129" style="fill:#C8C8C8;" width="3" height="3"/>
<path style="fill:#646464;" d="M813,159h-39v-3h39V159z M775.5,174l-7.5-9h15L775.5,174z M813,174h-3v-15h3V174z M777,165h-3v-6h3
	V165z"/>
<rect id="rect4165_220_" x="810" y="177" style="fill:#646464;" width="3" height="3"/>
<rect id="rect4165_219_" x="804" y="177" style="fill:#646464;" width="3" height="3"/>
<rect id="rect4165_218_" x="798" y="177" style="fill:#646464;" width="3" height="3"/>
<rect id="rect4165_217_" x="792" y="177" style="fill:#646464;" width="3" height="3"/>
<rect id="rect4165_216_" x="786" y="177" style="fill:#646464;" width="3" height="3"/>
<rect id="rect4165_27_" x="780" y="177" style="fill:#646464;" width="3" height="3"/>
<rect id="rect4165_26_" x="774" y="177" style="fill:#646464;" width="3" height="3"/>
<rect x="960" y="-48" style="fill:#7F7F7F;" width="48" height="48"/>
<path style="fill:#C8C8C8;" d="M888,132h-3v-3h3V132z M882,132h-3v-3h3V132z M894,126h-3v-3h3V126z M888,126h-3v-3h3V126z M882,126
	h-3v-3h3V126z M900,126h-3v-3h3V126z M882,120h-3v-3h3V120z M894,132h-3v-3h3V132z M888,114h-3v-3h3V114z M882,114h-3v-3h3V114z
	 M873,138h-3v-33h3V138z M894,102v3h-24v-3H894z M909,141h-3v-24h3V141z M906,138v3h-36v-3H906z M897,114h-3v-12h3V114z M909,114v3
	h-15v-3H909z M897,114v-12l12,12H897z"/>
<path d="M888,36h-3v-3h3V36z M882,36h-3v-3h3V36z M894,30h-3v-3h3V30z M888,30h-3v-3h3V30z M882,30h-3v-3h3V30z M900,30h-3v-3h3V30z
	 M882,24h-3v-3h3V24z M894,36h-3v-3h3V36z M888,18h-3v-3h3V18z M882,18h-3v-3h3V18z M873,42h-3V9h3V42z M894,6v3h-24V6H894z M909,45
	h-3V21h3V45z M906,42v3h-36v-3H906z M897,18h-3V6h3V18z M909,18v3h-15v-3H909z M897,18V6l12,12H897z"/>
<path style="fill:#7F7F7F;" d="M888,84h-3v-3h3V84z M882,84h-3v-3h3V84z M894,78h-3v-3h3V78z M888,78h-3v-3h3V78z M882,78h-3v-3h3
	V78z M900,78h-3v-3h3V78z M882,72h-3v-3h3V72z M894,84h-3v-3h3V84z M888,66h-3v-3h3V66z M882,66h-3v-3h3V66z M873,90h-3V57h3V90z
	 M894,54v3h-24v-3H894z M909,93h-3V69h3V93z M906,90v3h-36v-3H906z M897,66h-3V54h3V66z M909,66v3h-15v-3H909z M897,66V54l12,12H897
	z"/>
<path style="fill:#646464;" d="M888,180h-3v-3h3V180z M882,180h-3v-3h3V180z M894,174h-3v-3h3V174z M888,174h-3v-3h3V174z M882,174
	h-3v-3h3V174z M900,174h-3v-3h3V174z M882,168h-3v-3h3V168z M894,180h-3v-3h3V180z M888,162h-3v-3h3V162z M882,162h-3v-3h3V162z
	 M873,186h-3v-33h3V186z M894,150v3h-24v-3H894z M909,189h-3v-24h3V189z M906,186v3h-36v-3H906z M897,162h-3v-12h3V162z M909,162v3
	h-15v-3H909z M897,162v-12l12,12H897z"/>
<line style="fill:none;stroke:#000000;stroke-width:3;stroke-miterlimit:10;" x1="921" y1="39" x2="951" y2="9"/>
<line style="fill:none;stroke:#000000;stroke-width:3;stroke-miterlimit:10;" x1="921" y1="9" x2="951" y2="39"/>
<line style="fill:none;stroke:#C8C8C8;stroke-width:3;stroke-miterlimit:10;" x1="921" y1="135" x2="951" y2="105"/>
<line style="fill:none;stroke:#C8C8C8;stroke-width:3;stroke-miterlimit:10;" x1="921" y1="105" x2="951" y2="135"/>
<line style="fill:none;stroke:#000000;stroke-width:3;stroke-miterlimit:10;" x1="921" y1="87" x2="951" y2="57"/>
<line style="fill:none;stroke:#000000;stroke-width:3;stroke-miterlimit:10;" x1="921" y1="57" x2="951" y2="87"/>
<line style="fill:none;stroke:#C8C8C8;stroke-width:3;stroke-miterlimit:10;" x1="921" y1="183" x2="951" y2="153"/>
<line style="fill:none;stroke:#C8C8C8;stroke-width:3;stroke-miterlimit:10;" x1="921" y1="153" x2="951" y2="183"/>
<path style="fill:#C8C8C8;" d="M1143,105h-33v-3h33V105z M1143,138h-33v-3h33V138z M1113,135h-3v-30h3V135z M1146,138h-3v-36h3V138z
	 M1131,135h-3v-30h3V135z M1128,135h-3v-30h3V135z M1113,123v-3h30v3H1113z M1113,120v-3h30v3H1113z M1116,135h-3v-30h3V135z
	 M1143,135h-3v-30h3V135z M1113,108v-3h30v3H1113z M1113,135v-3h30v3H1113z"/>
<path style="fill:#C8C8C8;" d="M999,105h-33v-3h33V105z M999,138h-33v-3h33V138z M969,135h-3v-30h3V135z M1002,138h-3v-36h3V138z
	 M987,135h-3v-30h3V135z M984,135h-3v-30h3V135z M969,123v-3h30v3H969z M969,120v-3h30v3H969z M972,135h-3v-30h3V135z M999,135h-3
	v-30h3V135z M969,108v-3h30v3H969z M969,135v-3h30v3H969z M996,117h-9v-9h9V117z M981,132h-9v-9h9V132z M996,132h-9v-9h9V132z"/>
<path style="fill:#C8C8C8;" d="M1047,105h-33v-3h33V105z M1047,138h-33v-3h33V138z M1017,135h-3v-30h3V135z M1050,138h-3v-36h3V138z
	 M1035,135h-3v-30h3V135z M1032,135h-3v-30h3V135z M1017,123v-3h30v3H1017z M1017,120v-3h30v3H1017z M1020,135h-3v-30h3V135z
	 M1047,135h-3v-30h3V135z M1017,108v-3h30v3H1017z M1017,135v-3h30v3H1017z M1029,132h-9v-9h9V132z M1044,117h-9v-9h9V117z"/>
<path style="fill:#C8C8C8;" d="M1095,135v-33h3v33H1095z M1062,135v-33h3v33H1062z M1065,105v-3h30v3H1065z M1062,138v-3h36v3H1062z
	 M1065,123v-3h30v3H1065z M1065,120v-3h30v3H1065z M1077,105h3v30h-3V105z M1080,105h3v30h-3V105z M1065,108v-3h30v3H1065z
	 M1065,135v-3h30v3H1065z M1092,105h3v30h-3V105z M1065,105h3v30h-3V105z M1068,132v-9h9v9H1068z"/>
<path style="fill:#646464;" d="M1143,153h-33v-3h33V153z M1143,186h-33v-3h33V186z M1113,183h-3v-30h3V183z M1146,186h-3v-36h3V186z
	 M1131,183h-3v-30h3V183z M1128,183h-3v-30h3V183z M1113,171v-3h30v3H1113z M1113,168v-3h30v3H1113z M1116,183h-3v-30h3V183z
	 M1143,183h-3v-30h3V183z M1113,156v-3h30v3H1113z M1113,183v-3h30v3H1113z"/>
<path style="fill:#646464;" d="M999,153h-33v-3h33V153z M999,186h-33v-3h33V186z M969,183h-3v-30h3V183z M1002,186h-3v-36h3V186z
	 M987,183h-3v-30h3V183z M984,183h-3v-30h3V183z M969,171v-3h30v3H969z M969,168v-3h30v3H969z M972,183h-3v-30h3V183z M999,183h-3
	v-30h3V183z M969,156v-3h30v3H969z M969,183v-3h30v3H969z M996,165h-9v-9h9V165z M981,180h-9v-9h9V180z M996,180h-9v-9h9V180z"/>
<path style="fill:#646464;" d="M1047,153h-33v-3h33V153z M1047,186h-33v-3h33V186z M1017,183h-3v-30h3V183z M1050,186h-3v-36h3V186z
	 M1035,183h-3v-30h3V183z M1032,183h-3v-30h3V183z M1017,171v-3h30v3H1017z M1017,168v-3h30v3H1017z M1020,183h-3v-30h3V183z
	 M1047,183h-3v-30h3V183z M1017,156v-3h30v3H1017z M1017,183v-3h30v3H1017z M1029,180h-9v-9h9V180z M1044,165h-9v-9h9V165z"/>
<path style="fill:#646464;" d="M1095,183v-33h3v33H1095z M1062,183v-33h3v33H1062z M1065,153v-3h30v3H1065z M1062,186v-3h36v3H1062z
	 M1065,171v-3h30v3H1065z M1065,168v-3h30v3H1065z M1077,153h3v30h-3V153z M1080,153h3v30h-3V153z M1065,156v-3h30v3H1065z
	 M1065,183v-3h30v3H1065z M1092,153h3v30h-3V153z M1065,153h3v30h-3V153z M1068,180v-9h9v9H1068z"/>
<path style="fill:#7F7F7F;" d="M1143,57h-33v-3h33V57z M1143,90h-33v-3h33V90z M1113,87h-3V57h3V87z M1146,90h-3V54h3V90z M1131,87
	h-3V57h3V87z M1128,87h-3V57h3V87z M1113,75v-3h30v3H1113z M1113,72v-3h30v3H1113z M1116,87h-3V57h3V87z M1143,87h-3V57h3V87z
	 M1113,60v-3h30v3H1113z M1113,87v-3h30v3H1113z"/>
<path style="fill:#7F7F7F;" d="M999,57h-33v-3h33V57z M999,90h-33v-3h33V90z M969,87h-3V57h3V87z M1002,90h-3V54h3V90z M987,87h-3
	V57h3V87z M984,87h-3V57h3V87z M969,75v-3h30v3H969z M969,72v-3h30v3H969z M972,87h-3V57h3V87z M999,87h-3V57h3V87z M969,60v-3h30v3
	H969z M969,87v-3h30v3H969z M996,69h-9v-9h9V69z M981,84h-9v-9h9V84z M996,84h-9v-9h9V84z"/>
<path style="fill:#7F7F7F;" d="M1047,57h-33v-3h33V57z M1047,90h-33v-3h33V90z M1017,87h-3V57h3V87z M1050,90h-3V54h3V90z M1035,87
	h-3V57h3V87z M1032,87h-3V57h3V87z M1017,75v-3h30v3H1017z M1017,72v-3h30v3H1017z M1020,87h-3V57h3V87z M1047,87h-3V57h3V87z
	 M1017,60v-3h30v3H1017z M1017,87v-3h30v3H1017z M1029,84h-9v-9h9V84z M1044,69h-9v-9h9V69z"/>
<path style="fill:#7F7F7F;" d="M1095,87V54h3v33H1095z M1062,87V54h3v33H1062z M1065,57v-3h30v3H1065z M1062,90v-3h36v3H1062z
	 M1065,75v-3h30v3H1065z M1065,72v-3h30v3H1065z M1077,57h3v30h-3V57z M1080,57h3v30h-3V57z M1065,60v-3h30v3H1065z M1065,87v-3h30
	v3H1065z M1092,57h3v30h-3V57z M1065,57h3v30h-3V57z M1068,84v-9h9v9H1068z"/>
<path d="M1143,9h-33V6h33V9z M1143,42h-33v-3h33V42z M1113,39h-3V9h3V39z M1146,42h-3V6h3V42z M1131,39h-3V9h3V39z M1128,39h-3V9h3
	V39z M1113,27v-3h30v3H1113z M1113,24v-3h30v3H1113z M1116,39h-3V9h3V39z M1143,39h-3V9h3V39z M1113,12V9h30v3H1113z M1113,39v-3h30
	v3H1113z"/>
<path d="M999,9h-33V6h33V9z M999,42h-33v-3h33V42z M969,39h-3V9h3V39z M1002,42h-3V6h3V42z M987,39h-3V9h3V39z M984,39h-3V9h3V39z
	 M969,27v-3h30v3H969z M969,24v-3h30v3H969z M972,39h-3V9h3V39z M999,39h-3V9h3V39z M969,12V9h30v3H969z M969,39v-3h30v3H969z
	 M996,21h-9v-9h9V21z M981,36h-9v-9h9V36z M996,36h-9v-9h9V36z"/>
<path d="M1047,9h-33V6h33V9z M1047,42h-33v-3h33V42z M1017,39h-3V9h3V39z M1050,42h-3V6h3V42z M1035,39h-3V9h3V39z M1032,39h-3V9h3
	V39z M1017,27v-3h30v3H1017z M1017,24v-3h30v3H1017z M1020,39h-3V9h3V39z M1047,39h-3V9h3V39z M1017,12V9h30v3H1017z M1017,39v-3h30
	v3H1017z M1029,36h-9v-9h9V36z M1044,21h-9v-9h9V21z"/>
<path d="M1095,39V6h3v33H1095z M1062,39V6h3v33H1062z M1065,9V6h30v3H1065z M1062,42v-3h36v3H1062z M1065,27v-3h30v3H1065z M1065,24
	v-3h30v3H1065z M1077,9h3v30h-3V9z M1080,9h3v30h-3V9z M1065,12V9h30v3H1065z M1065,39v-3h30v3H1065z M1092,9h3v30h-3V9z M1065,9h3
	v30h-3V9z M1068,36v-9h9v9H1068z"/>
<path id="path4276_2_" inkscape:connector-curvature="0" style="fill:none;stroke:#FF0000;stroke-width:3;" d="M730.5,58.5l27,27"/>
<path id="path4276_1_" inkscape:connector-curvature="0" style="fill:none;stroke:#FF0000;stroke-width:3;" d="M730.5,154.5l27,27"
	/>
<polygon points="9,42 9,6 40.2,24 "/>
<polygon style="fill:#7F7F7F;" points="9,90 9,54 40.2,72 "/>
<polygon style="fill:#C8C8C8;" points="9,138 9,102 40.2,120 "/>
<polygon style="fill:#646464;" points="9,186 9,150 40.2,168 "/>
<polygon points="1200,24 1224,3 1224,45 "/>
<path d="M1212,33h-12V15h12V33z"/>
<line style="fill:none;stroke:#000000;stroke-miterlimit:10;" x1="1231.5" y1="19.5" x2="1240.5" y2="28.5"/>
<line style="fill:none;stroke:#000000;stroke-miterlimit:10;" x1="1231.5" y1="28.5" x2="1240.5" y2="19.5"/>
<polygon style="fill:#C8C8C8;" points="1200,120 1224,99 1224,141 "/>
<path style="fill:#C8C8C8;" d="M1212,129h-12v-18h12V129z"/>
<line style="fill:none;stroke:#C8C8C8;stroke-miterlimit:10;" x1="1231.5" y1="115.5" x2="1240.5" y2="124.5"/>
<line style="fill:none;stroke:#C8C8C8;stroke-miterlimit:10;" x1="1231.5" y1="124.5" x2="1240.5" y2="115.5"/>
<polygon style="fill:#7F7F7F;" points="1200,72 1224,51 1224,93 "/>
<path style="fill:#7F7F7F;" d="M1212,81h-12V63h12V81z"/>
<line style="fill:none;stroke:#7F7F7F;stroke-miterlimit:10;" x1="1231.5" y1="67.5" x2="1240.5" y2="76.5"/>
<line style="fill:none;stroke:#7F7F7F;stroke-miterlimit:10;" x1="1231.5" y1="76.5" x2="1240.5" y2="67.5"/>
<polygon style="fill:#646464;" points="1200,168 1224,147 1224,189 "/>
<path style="fill:#646464;" d="M1212,177h-12v-18h12V177z"/>
<line style="fill:none;stroke:#646464;stroke-miterlimit:10;" x1="1231.5" y1="163.5" x2="1240.5" y2="172.5"/>
<line style="fill:none;stroke:#646464;stroke-miterlimit:10;" x1="1231.5" y1="172.5" x2="1240.5" y2="163.5"/>
<rect id="rect4165_47_" x="243" y="19.5" width="3" height="9"/>
<rect id="rect4165_44_" x="249" y="16.5" width="3" height="15"/>
<rect id="rect4165_45_" x="255" y="10.5" width="3" height="27"/>
<rect id="rect4165_163_" x="267" y="7.5" width="3" height="33"/>
<rect id="rect4165_162_" x="261" y="13.5" width="3" height="21"/>
<rect id="rect4165_46_" x="273" y="13.5" width="3" height="21"/>
<rect id="rect4165_164_" x="279" y="10.5" width="3" height="27"/>
<rect id="rect4165_169_" x="243" y="115.5" style="fill:#C8C8C8;" width="3" height="9"/>
<rect id="rect4165_167_" x="249" y="112.5" style="fill:#C8C8C8;" width="3" height="15"/>
<rect id="rect4165_166_" x="255" y="106.5" style="fill:#C8C8C8;" width="3" height="27"/>
<rect id="rect4165_165_" x="267" y="103.5" style="fill:#C8C8C8;" width="3" height="33"/>
<rect id="rect4165_39_" x="261" y="109.5" style="fill:#C8C8C8;" width="3" height="21"/>
<rect id="rect4165_38_" x="273" y="109.5" style="fill:#C8C8C8;" width="3" height="21"/>
<rect id="rect4165_37_" x="279" y="106.5" style="fill:#C8C8C8;" width="3" height="27"/>
<rect id="rect4165_43_" x="243" y="67.5" style="fill:#7F7F7F;" width="3" height="9"/>
<rect id="rect4165_42_" x="249" y="64.5" style="fill:#7F7F7F;" width="3" height="15"/>
<rect id="rect4165_41_" x="255" y="58.5" style="fill:#7F7F7F;" width="3" height="27"/>
<rect id="rect4165_40_" x="267" y="55.5" style="fill:#7F7F7F;" width="3" height="33"/>
<rect id="rect4165_31_" x="261" y="61.5" style="fill:#7F7F7F;" width="3" height="21"/>
<rect id="rect4165_30_" x="273" y="61.5" style="fill:#7F7F7F;" width="3" height="21"/>
<rect id="rect4165_3_" x="279" y="58.5" style="fill:#7F7F7F;" width="3" height="27"/>
<rect id="rect4165_177_" x="243" y="163.5" style="fill:#646464;" width="3" height="9"/>
<rect id="rect4165_176_" x="249" y="160.5" style="fill:#646464;" width="3" height="15"/>
<rect id="rect4165_175_" x="255" y="154.5" style="fill:#646464;" width="3" height="27"/>
<rect id="rect4165_174_" x="267" y="151.5" style="fill:#646464;" width="3" height="33"/>
<rect id="rect4165_173_" x="261" y="157.5" style="fill:#646464;" width="3" height="21"/>
<rect id="rect4165_172_" x="273" y="157.5" style="fill:#646464;" width="3" height="21"/>
<rect id="rect4165_171_" x="279" y="154.5" style="fill:#646464;" width="3" height="27"/>
<rect id="rect4165_170_" x="294" y="36" width="36" height="3"/>
<rect id="rect4165_168_" x="327" y="9" width="3" height="12"/>
<rect id="rect4165_133_" x="327" y="12" width="3" height="24"/>
<rect id="rect4165_132_" x="294" y="12" width="3" height="24"/>
<rect id="rect4165_131_" x="294" y="9" width="36" height="3"/>
<rect id="rect4165_130_" x="300" y="30" width="3" height="3"/>
<rect id="rect4165_129_" x="306" y="30" width="6" height="3"/>
<rect id="rect4165_128_" x="315" y="30" width="6" height="3"/>
<rect id="rect4165_127_" x="294" y="84" style="fill:#7F7F7F;" width="36" height="3"/>
<rect id="rect4165_126_" x="327" y="57" style="fill:#7F7F7F;" width="3" height="12"/>
<rect id="rect4165_125_" x="327" y="60" style="fill:#7F7F7F;" width="3" height="24"/>
<rect id="rect4165_122_" x="294" y="60" style="fill:#7F7F7F;" width="3" height="24"/>
<rect id="rect4165_111_" x="294" y="57" style="fill:#7F7F7F;" width="36" height="3"/>
<rect id="rect4165_110_" x="300" y="78" style="fill:#7F7F7F;" width="3" height="3"/>
<rect id="rect4165_36_" x="306" y="78" style="fill:#7F7F7F;" width="6" height="3"/>
<rect id="rect4165_35_" x="315" y="78" style="fill:#7F7F7F;" width="6" height="3"/>
<rect id="rect4165_34_" x="294" y="132" style="fill:#C8C8C8;" width="36" height="3"/>
<rect id="rect4165_33_" x="327" y="105" style="fill:#C8C8C8;" width="3" height="12"/>
<rect id="rect4165_32_" x="327" y="108" style="fill:#C8C8C8;" width="3" height="24"/>
<rect id="rect4165_25_" x="294" y="108" style="fill:#C8C8C8;" width="3" height="24"/>
<rect id="rect4165_24_" x="294" y="105" style="fill:#C8C8C8;" width="36" height="3"/>
<rect id="rect4165_23_" x="300" y="126" style="fill:#C8C8C8;" width="3" height="3"/>
<rect id="rect4165_22_" x="306" y="126" style="fill:#C8C8C8;" width="6" height="3"/>
<rect id="rect4165_21_" x="315" y="126" style="fill:#C8C8C8;" width="6" height="3"/>
<rect id="rect4165_20_" x="294" y="180" style="fill:#646464;" width="36" height="3"/>
<rect id="rect4165_19_" x="327" y="153" style="fill:#646464;" width="3" height="12"/>
<rect id="rect4165_18_" x="327" y="156" style="fill:#646464;" width="3" height="24"/>
<rect id="rect4165_15_" x="294" y="156" style="fill:#646464;" width="3" height="24"/>
<rect id="rect4165_14_" x="294" y="153" style="fill:#646464;" width="36" height="3"/>
<rect id="rect4165_13_" x="300" y="174" style="fill:#646464;" width="3" height="3"/>
<rect id="rect4165_12_" x="306" y="174" style="fill:#646464;" width="6" height="3"/>
<rect id="rect4165_2_" x="315" y="174" style="fill:#646464;" width="6" height="3"/>

<!-- Color controls (svg index 26) -->
<path d="M1272,18A6,6 0 1,1 1272,30A6,6 0 1,1 1272,18Z"/>
<rect x="1270.5" y="6" width="3" height="9"/>
<rect x="1270.5" y="33" width="3" height="9"/>
<rect x="1254" y="22.5" width="9" height="3"/>
<rect x="1281" y="22.5" width="9" height="3"/>
<polygon points="1277.73,31.85 1284.09,38.21 1286.21,36.09 1279.85,29.73"/>
<polygon points="1264.15,29.73 1257.79,36.09 1259.91,38.21 1266.27,31.85"/>
<polygon points="1266.27,16.15 1259.91,9.79 1257.79,11.91 1264.15,18.27"/>
<polygon points="1279.85,18.27 1286.21,11.91 1284.09,9.79 1277.73,16.15"/>
<path d="M1272,66A6,6 0 1,1 1272,78A6,6 0 1,1 1272,66Z" style="fill:#7F7F7F;"/>
<rect x="1270.5" y="54" width="3" height="9" style="fill:#7F7F7F;"/>
<rect x="1270.5" y="81" width="3" height="9" style="fill:#7F7F7F;"/>
<rect x="1254" y="70.5" width="9" height="3" style="fill:#7F7F7F;"/>
<rect x="1281" y="70.5" width="9" height="3" style="fill:#7F7F7F;"/>
<polygon points="1277.73,79.85 1284.09,86.21 1286.21,84.09 1279.85,77.73" style="fill:#7F7F7F;"/>
<polygon points="1264.15,77.73 1257.79,84.09 1259.91,86.21 1266.27,79.85" style="fill:#7F7F7F;"/>
<polygon points="1266.27,64.15 1259.91,57.79 1257.79,59.91 1264.15,66.27" style="fill:#7F7F7F;"/>
<polygon points="1279.85,66.27 1286.21,59.91 1284.09,57.79 1277.73,64.15" style="fill:#7F7F7F;"/>
<path d="M1272,114A6,6 0 1,1 1272,126A6,6 0 1,1 1272,114Z" style="fill:#C8C8C8;"/>
<rect x="1270.5" y="102" width="3" height="9" style="fill:#C8C8C8;"/>
<rect x="1270.5" y="129" width="3" height="9" style="fill:#C8C8C8;"/>
<rect x="1254" y="118.5" width="9" height="3" style="fill:#C8C8C8;"/>
<rect x="1281" y="118.5" width="9" height="3" style="fill:#C8C8C8;"/>
<polygon points="1277.73,127.85 1284.09,134.21 1286.21,132.09 1279.85,125.73" style="fill:#C8C8C8;"/>
<polygon points="1264.15,125.73 1257.79,132.09 1259.91,134.21 1266.27,127.85" style="fill:#C8C8C8;"/>
<polygon points="1266.27,112.15 1259.91,105.79 1257.79,107.91 1264.15,114.27" style="fill:#C8C8C8;"/>
<polygon points="1279.85,114.27 1286.21,107.91 1284.09,105.79 1277.73,112.15" style="fill:#C8C8C8;"/>
<path d="M1272,162A6,6 0 1,1 1272,174A6,6 0 1,1 1272,162Z" style="fill:#646464;"/>
<rect x="1270.5" y="150" width="3" height="9" style="fill:#646464;"/>
<rect x="1270.5" y="177" width="3" height="9" style="fill:#646464;"/>
<rect x="1254" y="166.5" width="9" height="3" style="fill:#646464;"/>
<rect x="1281" y="166.5" width="9" height="3" style="fill:#646464;"/>
<polygon points="1277.73,175.85 1284.09,182.21 1286.21,180.09 1279.85,173.73" style="fill:#646464;"/>
<polygon points="1264.15,173.73 1257.79,180.09 1259.91,182.21 1266.27,175.85" style="fill:#646464;"/>
<polygon points="1266.27,160.15 1259.91,153.79 1257.79,155.91 1264.15,162.27" style="fill:#646464;"/>
<polygon points="1279.85,162.27 1286.21,155.91 1284.09,153.79 1277.73,160.15" style="fill:#646464;"/>

</svg>
